G04 ================== begin FILE IDENTIFICATION RECORD ==================*
G04 Layout Name:  pcb.brd*
G04 Film Name:    BOTTOM*
G04 File Format:  Gerber RS274X*
G04 File Origin:  Cadence Allegro 16.6-2015-S059*
G04 Origin Date:  Tue Dec 13 18:23:48 2022*
G04 *
G04 Layer:  ETCH/BOTTOM*
G04 Layer:  PIN/BOTTOM*
G04 Layer:  VIA CLASS/BOTTOM*
G04 *
G04 Offset:    (0.00 0.00)*
G04 Mirror:    No*
G04 Mode:      Positive*
G04 Rotation:  0*
G04 FullContactRelief:  No*
G04 UndefLineWidth:     10.00*
G04 ================== end FILE IDENTIFICATION RECORD ====================*
%FSLAX25Y25*MOIN*%
%IR0*IPPOS*OFA0.00000B0.00000*MIA0B0*SFA1.00000B1.00000*%
%ADD10C,.024*%
%ADD11C,.022*%
%ADD12C,.018*%
G75*
%LPD*%
G75*
G54D10*
X15500Y38500D03*
X36000Y58000D03*
X29500Y89500D03*
X30000Y81000D03*
X42000Y85000D03*
X29500Y126500D03*
X15500Y133000D03*
X54000Y28000D03*
X45000Y58000D03*
X67000Y48000D03*
X59000Y88000D03*
X44500Y131500D03*
X91500Y55500D03*
X101000Y99000D03*
X107000Y27000D03*
Y43000D03*
X103000Y145000D03*
X119543Y142457D03*
X133000Y7000D03*
G54D11*
G01X29500Y89500D02*
Y126500D01*
G01X133000Y7000D02*
X109000D01*
X107000Y9000D01*
Y27000D01*
G54D12*
G01X15500Y133000D02*
Y38500D01*
G01X44500Y131500D02*
Y87450D01*
X45500Y86450D01*
Y83550D01*
X44500Y82550D01*
Y66500D01*
X36000Y58000D01*
G01X42000Y85000D02*
X34000D01*
X30000Y81000D01*
G01X54000Y28000D02*
X59000Y33000D01*
Y69000D01*
G01D02*
X48000Y58000D01*
X45000D01*
G01X91500Y55500D02*
X84000Y48000D01*
X67000D01*
G01X59000Y88000D02*
Y69000D01*
G01X101000Y99000D02*
X98000Y102000D01*
Y140000D01*
X103000Y145000D01*
G01X119543Y142457D02*
Y55543D01*
X107000Y43000D01*
M02*
