G04 ================== begin FILE IDENTIFICATION RECORD ==================*
G04 Layout Name:  PAI-POPA.brd*
G04 Film Name:    SMTOP*
G04 File Format:  Gerber RS274X*
G04 File Origin:  Cadence Allegro 16.6-2015-S059*
G04 Origin Date:  Thu Dec 15 11:56:41 2022*
G04 *
G04 Layer:  VIA CLASS/SOLDERMASK_TOP*
G04 Layer:  PIN/SOLDERMASK_TOP*
G04 Layer:  PACKAGE GEOMETRY/SOLDERMASK_TOP*
G04 Layer:  BOARD GEOMETRY/SOLDERMASK_TOP*
G04 *
G04 Offset:    (0.00 0.00)*
G04 Mirror:    No*
G04 Mode:      Positive*
G04 Rotation:  0*
G04 FullContactRelief:  No*
G04 UndefLineWidth:     0.00*
G04 ================== end FILE IDENTIFICATION RECORD ====================*
%FSLAX25Y25*MOIN*%
%IR0*IPPOS*OFA0.00000B0.00000*MIA0B0*SFA1.00000B1.00000*%
%ADD10R,.106X.066*%
%ADD11R,.066X.106*%
%ADD14C,.044*%
%ADD12C,.04724*%
%ADD18R,.13583X.06496*%
%ADD17R,.025X.022*%
%ADD19R,.048X.076*%
%ADD16R,.04724X.04528*%
%ADD13R,.04528X.06496*%
%ADD15R,.06496X.04528*%
%LPD*%
G75*
G54D10*
X14000Y60500D03*
X15000Y85500D03*
X14000Y73500D03*
X15000Y110500D03*
Y98500D03*
Y123500D03*
G54D11*
X11500Y146000D03*
X35500Y14000D03*
Y146000D03*
X24500D03*
X48500Y14000D03*
X60500D03*
X48500Y146000D03*
X73500Y14000D03*
X99500D03*
X86500D03*
X125500D03*
X112500D03*
G54D12*
X20000Y20000D03*
X140000Y140000D03*
G54D13*
X33937Y47000D03*
X26063D03*
X39937Y35000D03*
X32063D03*
X61937Y48000D03*
X54063D03*
X61937Y35000D03*
X54063D03*
X72063Y56000D03*
X61937Y60000D03*
X54063D03*
X72063Y81000D03*
Y67000D03*
X64937Y81000D03*
X57063D03*
X59063Y116000D03*
X66937D03*
X79937Y56000D03*
Y81000D03*
Y67000D03*
X94937Y81000D03*
X87063D03*
X95937Y118000D03*
X88063D03*
X124063Y32000D03*
X131937D03*
X111937Y118000D03*
X104063D03*
X128937Y132000D03*
X121063D03*
X105063D03*
X112937D03*
G54D14*
X15500Y38500D03*
X36000Y58000D03*
X42000Y91000D03*
X29500Y89500D03*
X30000Y81000D03*
X42000Y85000D03*
X29500Y126500D03*
X15500Y133000D03*
X54000Y28000D03*
X45000Y58000D03*
X67000Y48000D03*
X59000Y88000D03*
X44500Y131500D03*
X91500Y55500D03*
X80000Y116000D03*
X101000Y99000D03*
X107000Y27000D03*
Y43000D03*
X103000Y145000D03*
X119543Y142457D03*
X133000Y7000D03*
X147000Y115000D03*
G54D15*
X34000Y73937D03*
Y66063D03*
X29000Y109937D03*
Y102063D03*
X38000Y109937D03*
Y102063D03*
X73000Y41937D03*
Y34063D03*
X44000Y66063D03*
Y73937D03*
G54D16*
X40457Y123000D03*
X52543Y115000D03*
X45457D03*
X47543Y123000D03*
X93543Y33000D03*
X86457D03*
X93543Y44000D03*
X86457D03*
X119543Y149000D03*
X112457D03*
X139543D03*
X132457D03*
G54D17*
X54500Y95200D03*
Y102700D03*
X61500Y99000D03*
X89500Y95200D03*
Y102700D03*
X96500Y99000D03*
G54D18*
X63795Y139000D03*
X88205D03*
X120795Y55000D03*
Y86000D03*
X145205Y55000D03*
Y86000D03*
G54D19*
X139000Y16000D03*
X146900D03*
M02*
