G04 ================== begin FILE IDENTIFICATION RECORD ==================*
G04 Layout Name:  PAI-POPA.brd*
G04 Film Name:    TOP*
G04 File Format:  Gerber RS274X*
G04 File Origin:  Cadence Allegro 16.6-2015-S059*
G04 Origin Date:  Thu Dec 15 11:56:41 2022*
G04 *
G04 Layer:  ETCH/TOP*
G04 Layer:  PIN/TOP*
G04 Layer:  VIA CLASS/TOP*
G04 *
G04 Offset:    (0.00 0.00)*
G04 Mirror:    No*
G04 Mode:      Positive*
G04 Rotation:  0*
G04 FullContactRelief:  No*
G04 UndefLineWidth:     0.00*
G04 ================== end FILE IDENTIFICATION RECORD ====================*
%FSLAX25Y25*MOIN*%
%IR0*IPPOS*OFA0.00000B0.00000*MIA0B0*SFA1.00000B1.00000*%
%ADD10R,.1X.06*%
%ADD11R,.06X.1*%
%ADD15C,.04*%
%ADD14C,.024*%
%ADD12C,.03937*%
%ADD19R,.13583X.06496*%
%ADD18R,.02X.017*%
%ADD20R,.048X.076*%
%ADD17R,.04331X.0374*%
%ADD13R,.0374X.05709*%
%ADD16R,.05709X.0374*%
%ADD21C,.022*%
%ADD22C,.018*%
G75*
%LPD*%
G75*
G54D10*
X14000Y60500D03*
X15000Y85500D03*
X14000Y73500D03*
X15000Y110500D03*
Y98500D03*
Y123500D03*
G54D20*
X139000Y16000D03*
X146900D03*
G54D11*
X11500Y146000D03*
X35500Y14000D03*
Y146000D03*
X24500D03*
X48500Y14000D03*
X60500D03*
X48500Y146000D03*
X73500Y14000D03*
X99500D03*
X86500D03*
X125500D03*
X112500D03*
G54D21*
G01X14000Y60500D02*
X12000D01*
X6500Y66000D01*
Y79000D01*
X13000Y85500D01*
X15000D01*
G01X34000Y66063D02*
X30045D01*
X24991Y61009D01*
G01D02*
X24482Y60500D01*
X14000D01*
G01X24991Y61009D02*
X26063Y59937D01*
Y47000D01*
G01X34000Y66063D02*
X34985D01*
X37633Y68711D01*
Y68800D01*
X38000Y69167D01*
Y69676D01*
X39355Y71031D01*
Y73155D01*
X40200Y74000D01*
X43937D01*
X44000Y73937D01*
G01X38000Y102063D02*
Y98000D01*
X29500Y89500D01*
G01X23832Y85500D02*
X15000D01*
G01X23832D02*
X25500D01*
X29500Y89500D01*
G01X35500Y135563D02*
X42000Y142063D01*
Y149800D01*
X43000Y150800D01*
Y152036D01*
X44464Y153500D01*
X94500D01*
X99300Y148700D01*
Y143467D01*
X101467Y141300D01*
X104533D01*
X105234Y142000D01*
X114767D01*
X118010Y138757D01*
X119243D01*
X121063Y136937D01*
Y132000D01*
G01X29500Y126500D02*
Y129300D01*
X31700Y131500D01*
X39500D01*
G01D02*
Y126927D01*
X40457Y125970D01*
Y123000D01*
G01X35500Y135563D02*
Y135500D01*
X39500Y131500D01*
G01X35500Y135563D02*
Y146000D01*
G01X44000Y73937D02*
X43015D01*
G01X72063Y67000D02*
Y71737D01*
X69863Y73937D01*
X44000D01*
G01X95937Y118000D02*
Y121800D01*
X100137Y126000D01*
X107800D01*
X112000Y121800D01*
Y118063D01*
X111937Y118000D01*
G01X112500Y22553D02*
Y14000D01*
G01Y22553D02*
Y24800D01*
X110300Y27000D01*
X107000D01*
G01X124063Y22198D02*
X125500Y20761D01*
Y14000D01*
G01X124063Y22198D02*
Y32000D01*
G01X111937Y118000D02*
Y98063D01*
X115000Y95000D01*
X128416D01*
X130000Y93416D01*
Y90371D01*
X130087Y90284D01*
Y50716D01*
X130000Y50629D01*
Y43001D01*
X124063Y37064D01*
Y32000D01*
G01X121063Y132000D02*
X121000Y131937D01*
Y105200D01*
X122200Y104000D01*
X131553D01*
X145205Y90348D01*
Y86000D01*
G01X112937Y132000D02*
X121063D01*
G01X133000Y7000D02*
Y9800D01*
X134200Y11000D01*
X137800D01*
X139000Y12200D01*
G01D02*
Y16000D01*
G01Y12200D02*
Y10600D01*
X140600Y9000D01*
X150800D01*
X153000Y11200D01*
Y23000D01*
X145205Y30795D01*
Y55000D01*
G01D02*
Y86000D01*
G54D12*
X20000Y20000D03*
X140000Y140000D03*
G54D22*
G01X35832Y21832D02*
X46000Y32000D01*
Y46800D01*
X47200Y48000D01*
X54063D01*
G01X35832Y21832D02*
X35500Y21500D01*
Y14000D01*
G01X32063Y35000D02*
Y38955D01*
X33937Y40829D01*
Y41937D01*
G01Y47000D02*
Y41937D01*
G01D02*
X30937D01*
X27500Y38500D01*
X15500D01*
G01X39937Y35000D02*
Y39937D01*
X40000Y40000D01*
Y54000D01*
X36000Y58000D01*
G01X34000Y73937D02*
X25937D01*
G01X22590Y73500D02*
X14000D01*
G01X25937Y73937D02*
X30000Y78000D01*
Y81000D01*
G01X22590Y73500D02*
X23027Y73937D01*
X25937D01*
G01X38000Y109937D02*
X29000D01*
G01X23384Y110500D02*
X15000D01*
G01X23384D02*
X23947Y109937D01*
X29000D01*
G01X22766Y98500D02*
Y99784D01*
X25045Y102063D01*
X29000D01*
G01X22766Y98500D02*
X15000D01*
G01X23725Y120946D02*
Y121175D01*
X21400Y123500D01*
X15000D01*
G01X45457Y115000D02*
X33000D01*
X27582Y120418D01*
X24253D01*
G01D02*
X26000Y122165D01*
Y131300D01*
X24500Y132800D01*
Y138137D01*
G01X23725Y120946D02*
X24253Y120418D01*
G01X24500Y138137D02*
Y146000D01*
G01X12000Y138000D02*
X11500Y138500D01*
Y146000D01*
G01X12000Y138000D02*
Y136500D01*
X15500Y133000D01*
G01X48500Y14000D02*
X52900D01*
X55200Y11700D01*
Y8047D01*
X56547Y6700D01*
X65790D01*
X67590Y8500D01*
Y18313D01*
X73500Y24223D01*
G01X48500Y16000D02*
Y14000D01*
G01X54000Y28000D02*
X51400D01*
X48500Y25100D01*
Y16000D01*
G01X61000Y23127D02*
Y27078D01*
X54063Y34015D01*
Y35000D01*
G01X61000Y23127D02*
X60500Y22627D01*
Y14000D01*
G01X45000Y58000D02*
Y62093D01*
X44000Y63093D01*
Y66063D01*
G01X54063Y60000D02*
Y60985D01*
X56711Y63633D01*
X57570D01*
X59937Y66000D01*
X63915D01*
X66107Y63808D01*
Y63384D01*
X68336Y61155D01*
X74886D01*
X76408Y59633D01*
X77289D01*
X79937Y56985D01*
Y56000D01*
G01X61937Y48000D02*
Y35000D01*
G01Y48000D02*
Y60000D01*
G01Y48000D02*
X67000D01*
G01X54500Y102700D02*
Y99879D01*
X52971Y98350D01*
X52547D01*
X51200Y97003D01*
Y93397D01*
X51300Y93297D01*
Y82400D01*
X52700Y81000D01*
X57063D01*
G01X54500Y95200D02*
Y89800D01*
X56300Y88000D01*
X59000D01*
G01X45457Y115000D02*
Y111730D01*
X47000Y110187D01*
Y92930D01*
X45070Y91000D01*
X42000D01*
G01D02*
Y85000D01*
G01X72063Y81000D02*
X64937D01*
G01X80000Y116000D02*
X66937D01*
G01D02*
Y112045D01*
X67000Y111982D01*
Y104350D01*
X61650Y99000D01*
X61500D01*
G01X52543Y115000D02*
Y106607D01*
X54500Y104650D01*
Y102700D01*
G01X88063Y118000D02*
X88000Y118063D01*
Y121800D01*
X86800Y123000D01*
X62326D01*
X59063Y119737D01*
G01Y116000D02*
Y119737D01*
G01D02*
Y119936D01*
X55999Y123000D01*
X47839D01*
G01D02*
X50000Y125161D01*
Y131474D01*
X51700Y133174D01*
Y135097D01*
X55603Y139000D01*
X63795D01*
G01X47839Y123000D02*
X47543D01*
G01X48500Y137000D02*
Y146000D01*
G01Y137000D02*
Y135500D01*
X44500Y131500D01*
G01X99012Y22000D02*
X96001D01*
X93590Y19589D01*
Y10261D01*
X91800Y8471D01*
Y8047D01*
X90453Y6700D01*
X90029D01*
X89329Y6000D01*
X83671D01*
X82971Y6700D01*
X82547D01*
X81200Y8047D01*
Y10400D01*
X77600Y14000D01*
X73500D01*
G01Y24223D02*
Y14000D01*
G01X99012Y22000D02*
X99500Y21512D01*
Y14000D01*
G01X86500Y21806D02*
Y14000D01*
G01Y21806D02*
X86457Y21849D01*
Y33000D01*
G01D02*
X78018D01*
X76955Y34063D01*
X73000D01*
G01X86457Y44000D02*
Y40730D01*
X90317Y36870D01*
X92643D01*
X93543Y35970D01*
Y33000D01*
G01X73000Y41937D02*
Y51108D01*
X72063Y52045D01*
Y56000D01*
G01X73000Y41937D02*
X81128D01*
X83191Y44000D01*
X86457D01*
G01X107000Y43000D02*
X97809D01*
X96809Y44000D01*
X93543D01*
G01X91500Y55500D02*
X93543Y53457D01*
Y44000D01*
G01X79937Y67000D02*
X85000D01*
X94937Y76937D01*
Y81000D01*
G01D02*
Y89913D01*
X89650Y95200D01*
X89500D01*
G01X94937Y81000D02*
X103999D01*
X108999Y86000D01*
X120795D01*
G01X79937Y81000D02*
X87063D01*
G01X80000Y116000D02*
Y112050D01*
X89350Y102700D01*
X89500D01*
G01X96500Y99000D02*
X101000D01*
G01X104063Y118000D02*
Y102063D01*
X101000Y99000D01*
G01X86863Y120937D02*
X88063Y119737D01*
Y118000D01*
G01X88205Y139000D02*
X98958D01*
X100058Y137900D01*
X103118D01*
X105063Y135955D01*
Y132000D01*
G01X120795Y86000D02*
Y55000D01*
G01X103000Y145000D02*
X107000Y149000D01*
X112457D01*
G01X139543D02*
X139000Y148457D01*
Y146200D01*
X137800Y145000D01*
X135746D01*
X135576Y144830D01*
X130704D01*
X128937Y143063D01*
Y132000D01*
G01X119543Y149000D02*
X132457D01*
G01X119543D02*
Y142457D01*
G01X131937Y32000D02*
X135800D01*
X146900Y20900D01*
Y16000D01*
G01X147000Y115000D02*
Y147000D01*
X145000Y149000D01*
X139543D01*
G54D13*
X33937Y47000D03*
X26063D03*
X39937Y35000D03*
X32063D03*
X61937Y48000D03*
X54063D03*
X61937Y35000D03*
X54063D03*
X72063Y56000D03*
X61937Y60000D03*
X54063D03*
X72063Y81000D03*
Y67000D03*
X64937Y81000D03*
X57063D03*
X59063Y116000D03*
X66937D03*
X79937Y56000D03*
Y81000D03*
Y67000D03*
X94937Y81000D03*
X87063D03*
X95937Y118000D03*
X88063D03*
X124063Y32000D03*
X131937D03*
X111937Y118000D03*
X104063D03*
X128937Y132000D03*
X121063D03*
X105063D03*
X112937D03*
G54D14*
X15500Y38500D03*
X36000Y58000D03*
X29500Y89500D03*
X30000Y81000D03*
X42000Y85000D03*
X29500Y126500D03*
X15500Y133000D03*
X54000Y28000D03*
X45000Y58000D03*
X67000Y48000D03*
X59000Y88000D03*
X44500Y131500D03*
X91500Y55500D03*
X101000Y99000D03*
X107000Y27000D03*
Y43000D03*
X103000Y145000D03*
X119543Y142457D03*
X133000Y7000D03*
G54D15*
X42000Y91000D03*
X80000Y116000D03*
X147000Y115000D03*
G54D16*
X34000Y73937D03*
Y66063D03*
X29000Y109937D03*
Y102063D03*
X38000Y109937D03*
Y102063D03*
X73000Y41937D03*
Y34063D03*
X44000Y66063D03*
Y73937D03*
G54D17*
X40457Y123000D03*
X52543Y115000D03*
X45457D03*
X47543Y123000D03*
X93543Y33000D03*
X86457D03*
X93543Y44000D03*
X86457D03*
X119543Y149000D03*
X112457D03*
X139543D03*
X132457D03*
G54D18*
X54500Y95200D03*
Y102700D03*
X61500Y99000D03*
X89500Y95200D03*
Y102700D03*
X96500Y99000D03*
G54D19*
X63795Y139000D03*
X88205D03*
X120795Y55000D03*
Y86000D03*
X145205Y55000D03*
Y86000D03*
M02*
